/* XPM */
static char * backroom_xpm[] = {
"64 64 340 2",
"  	c #D2D174",
". 	c #D7D776",
"+ 	c #D8D876",
"@ 	c #DBDB78",
"# 	c #D0CF72",
"$ 	c #D6D675",
"% 	c #DADA77",
"& 	c #CFCE72",
"* 	c #D4D474",
"= 	c #D0D073",
"- 	c #DAD976",
"; 	c #CCCC70",
"> 	c #D2D272",
", 	c #D7D775",
"' 	c #CECE72",
") 	c #D8D875",
"! 	c #D3D373",
"~ 	c #D4D374",
"{ 	c #D8D775",
"] 	c #CECD71",
"^ 	c #D5D474",
"/ 	c #DAD977",
"( 	c #CDCC71",
"_ 	c #D2D273",
": 	c #D9D976",
"< 	c #D5D573",
"[ 	c #CBCA6F",
"} 	c #D0D071",
"| 	c #D6D674",
"1 	c #D3D273",
"2 	c #D2D173",
"3 	c #D7D675",
"4 	c #CFCF72",
"5 	c #D5D574",
"6 	c #DADA76",
"7 	c #DCDC78",
"8 	c #CDCD72",
"9 	c #C6C46F",
"0 	c #D6D575",
"a 	c #CAC970",
"b 	c #CECD72",
"c 	c #C5C26E",
"d 	c #CCCA70",
"e 	c #C8C76F",
"f 	c #C9C96F",
"g 	c #CAC96F",
"h 	c #C3C16D",
"i 	c #C9C86F",
"j 	c #C7C76E",
"k 	c #CFCF71",
"l 	c #C4C26E",
"m 	c #CBCA71",
"n 	c #CCCB71",
"o 	c #CCCB70",
"p 	c #C1BF6C",
"q 	c #CDCB71",
"r 	c #CBCA70",
"s 	c #C7C66E",
"t 	c #CDCC72",
"u 	c #CCCC71",
"v 	c #CAC971",
"w 	c #CAC870",
"x 	c #D0CF73",
"y 	c #C6C56E",
"z 	c #C6C46E",
"A 	c #D1D173",
"B 	c #D9D977",
"C 	c #CDCD71",
"D 	c #C8C66F",
"E 	c #C4C36D",
"F 	c #C9C96E",
"G 	c #D1D172",
"H 	c #C9C770",
"I 	c #C7C66F",
"J 	c #D3D274",
"K 	c #C5C46E",
"L 	c #D4D473",
"M 	c #D9D876",
"N 	c #D3D374",
"O 	c #D1D174",
"P 	c #D1D073",
"Q 	c #D6D676",
"R 	c #D5D575",
"S 	c #C9C870",
"T 	c #CBCB70",
"U 	c #D0D072",
"V 	c #C6C66E",
"W 	c #CACA70",
"X 	c #CBCB71",
"Y 	c #D2D274",
"Z 	c #C8C870",
"` 	c #D4D574",
" .	c #D7D676",
"..	c #CFCF73",
"+.	c #D4D475",
"@.	c #D7D876",
"#.	c #D8D776",
"$.	c #C8C86F",
"%.	c #C2C06D",
"&.	c #D6D775",
"*.	c #C2C16D",
"=.	c #BDBC6A",
"-.	c #C6C66F",
";.	c #C9C970",
">.	c #CACA71",
",.	c #C8C770",
"'.	c #D5D475",
").	c #C5C36E",
"!.	c #CECE71",
"~.	c #C5C46D",
"{.	c #C6C56F",
"].	c #CBC971",
"^.	c #C5C56D",
"/.	c #C7C76F",
"(.	c #C8C76E",
"_.	c #D1D072",
":.	c #D4D375",
"<.	c #D2D172",
"[.	c #CBCB6F",
"}.	c #D4D373",
"|.	c #D6D574",
"1.	c #D0CF71",
"2.	c #BFBD6A",
"3.	c #C2BF6C",
"4.	c #C0BE6B",
"5.	c #C2C06C",
"6.	c #C4C26D",
"7.	c #C5C36D",
"8.	c #C7C56E",
"9.	c #C9C76F",
"0.	c #CCCB6F",
"a.	c #C6C66D",
"b.	c #C9C86E",
"c.	c #CACA6F",
"d.	c #CECD70",
"e.	c #DBDB77",
"f.	c #C3C16E",
"g.	c #BFBD6C",
"h.	c #BFBD6B",
"i.	c #C0BF6C",
"j.	c #C5C56E",
"k.	c #C5C36F",
"l.	c #CFCE73",
"m.	c #C8C670",
"n.	c #C3C26D",
"o.	c #D1D273",
"p.	c #C4C36E",
"q.	c #C3C26E",
"r.	c #C4C46D",
"s.	c #D5D675",
"t.	c #C4C46E",
"u.	c #D3D375",
"v.	c #BEBC6A",
"w.	c #C1BE6C",
"x.	c #CAC86F",
"y.	c #C4C36C",
"z.	c #C6C56D",
"A.	c #C6C46D",
"B.	c #C4C26C",
"C.	c #C7C56F",
"D.	c #CECC71",
"E.	c #CAC96E",
"F.	c #C7C66D",
"G.	c #CECE70",
"H.	c #C5C46C",
"I.	c #D1D171",
"J.	c #C8C86E",
"K.	c #C4C46C",
"L.	c #CDCD70",
"M.	c #C8C66E",
"N.	c #C2C16C",
"O.	c #CFCE71",
"P.	c #D2D372",
"Q.	c #D3D473",
"R.	c #C7C76D",
"S.	c #C3C26C",
"T.	c #C2C16B",
"U.	c #C1C16B",
"V.	c #C3C36C",
"W.	c #D8D976",
"X.	c #CFD072",
"Y.	c #BCBB6A",
"Z.	c #D0D172",
"`.	c #C3C36D",
" +	c #C2C26C",
".+	c #C1C06C",
"++	c #CCCB72",
"@+	c #C1C06B",
"#+	c #C1BF6B",
"$+	c #C8C86D",
"%+	c #D2D271",
"&+	c #CECD6F",
"*+	c #D3D372",
"=+	c #D3D272",
"-+	c #CDCD6F",
";+	c #CBC970",
">+	c #C1BE6B",
",+	c #BEBC69",
"'+	c #C4C36B",
")+	c #CBC96F",
"!+	c #D0D070",
"~+	c #C3C16C",
"{+	c #C5C36C",
"]+	c #C2C06B",
"^+	c #CFCD72",
"/+	c #C9C76E",
"(+	c #CDCC70",
"_+	c #C1BF6D",
":+	c #B8B767",
"<+	c #CACB6F",
"[+	c #BEBC6B",
"}+	c #BDBB6B",
"|+	c #BAB969",
"1+	c #C2C26D",
"2+	c #BEBD6C",
"3+	c #C1C16C",
"4+	c #C0C06C",
"5+	c #BFBF6B",
"6+	c #BCBB69",
"7+	c #C1C06D",
"8+	c #BEBE6B",
"9+	c #BFBE6B",
"0+	c #D2D373",
"a+	c #D1D272",
"b+	c #CCCC6F",
"c+	c #CFCF70",
"d+	c #BBB968",
"e+	c #C0BD6B",
"f+	c #C3C16B",
"g+	c #BEBD68",
"h+	c #C6C56C",
"i+	c #CECE6F",
"j+	c #C2C16A",
"k+	c #D5D473",
"l+	c #CDCB70",
"m+	c #C3C26B",
"n+	c #C8C76C",
"o+	c #C7C66C",
"p+	c #CBCB6E",
"q+	c #CAC96D",
"r+	c #D1D071",
"s+	c #C0BF69",
"t+	c #CCCB6E",
"u+	c #BDBA69",
"v+	c #C1C16A",
"w+	c #C0BF6B",
"x+	c #C3C36B",
"y+	c #C0C06B",
"z+	c #BEBE6A",
"A+	c #D4D575",
"B+	c #C9CA6F",
"C+	c #CCCD71",
"D+	c #C8C96F",
"E+	c #CBCC70",
"F+	c #C0BE6C",
"G+	c #BDBB6A",
"H+	c #BFBE6A",
"I+	c #CACB6E",
"J+	c #BDBD69",
"K+	c #BAB869",
"L+	c #BBB96A",
"M+	c #BFBF6A",
"N+	c #BBB969",
"O+	c #BCBA6A",
"P+	c #D5D674",
"Q+	c #D0CE73",
"R+	c #C0BF6A",
"S+	c #BEBD69",
"T+	c #BDBC68",
"U+	c #C7C56D",
"V+	c #CDCD6E",
"W+	c #C8C76D",
"X+	c #C4C46B",
"Y+	c #CBCA6E",
"Z+	c #CCCC6E",
"`+	c #BDBB69",
" @	c #C3C26A",
".@	c #BEBB6A",
"+@	c #CFCE6F",
"@@	c #BFBC6B",
"#@	c #DCDB78",
"$@	c #C5C56C",
"%@	c #C1C06A",
"&@	c #BFBD69",
"*@	c #CACA6E",
"=@	c #C6C66C",
"-@	c #C0BE6A",
";@	c #C3C36A",
">@	c #CFD071",
",@	c #C7C86D",
"'@	c #C2C26B",
")@	c #B9B869",
"!@	c #BEBD6A",
"~@	c #C9CA6E",
"{@	c #B8B768",
"]@	c #BDBD6B",
"^@	c #B7B667",
"/@	c #BDBD6A",
"(@	c #C1C16D",
"_@	c #BDBC6B",
":@	c #CBCC6F",
"<@	c #C1C26B",
"[@	c #BEBD6B",
"}@	c #BFBE6C",
"|@	c #BCBC69",
"1@	c #C0C06A",
"2@	c #CCCD6F",
"3@	c #C5C56B",
"4@	c #BCBA69",
"5@	c #C9C96D",
"6@	c #CACA6D",
"7@	c #CCCA71",
"8@	c #BFBD68",
"9@	c #BFBE69",
"0@	c #BBBA66",
"a@	c #C5C46B",
"b@	c #CDCC6F",
"c@	c #CFCE70",
"d@	c #C0BE69",
"e@	c #CCCC6D",
"f@	c #C1BF6A",
"g@	c #C0C069",
"h@	c #C9C86C",
"i@	c #D0CF70",
"j@	c #CFCF6F",
"k@	c #C1C069",
"l@	c #C4C26B",
"m@	c #D2D171",
"n@	c #C9C86D",
"o@	c #C7C76C",
"p@	c #BFBF69",
"q@	c #B9B767",
"r@	c #BBB869",
"s@	c #BDBD68",
"t@	c #BBBA69",
"u@	c #BBBA68",
"v@	c #BCBB68",
"w@	c #BBBB69",
"x@	c #C7C86E",
"y@	c #BCBC6A",
"  . + @ # $ % % & * $ % = * - + ; * > , ' * ) + = ! ~ { ] ^ / $ ( ~ ^ + & _ : < [ } * | & $ : : & 1 2 3 ] * + % 4 5 3 6 = 3 @ 7 ",
"8 = 9 & ( 0 : / a b c d e ~ + $ f g h i j k $ 5 a b l ( m 1 5 3 a n h b g ! + 5 j o p ( e ~ : , a q l r s * $ , r b h t u $ @ 7 ",
"  n v w x 0 % : x e y z ] A + B C e D E F G $ + ( a H I & J + , n w K z ' _ L | 4 s E D o A , M u I H y o N : : # m v w = . @ 7 ",
"t O P   n Q B : m 8 ( ' I ~ * R S T r ( a U _ , V r t x I 2 : $ V b b & a * , | e ( ( C W N B : X & n b W N . , r ' x Y n $ @ 7 ",
"  R % + ' * R + u A B J Z Y A N X A ` G u = = 5 ' A B  ...+.J . b = . N ' N R @.T ' . * r A J N n ~ $   u N A . b A , + 4 $ #.7 ",
"8 . % % n b l t m N . . $.a %.a a N : &.V a *.a e P . R a b %.S S N N $ e e =.( y C $ $ y m %.S -.Y * * ;.n p >.S N B : m x 9 x ",
"  . @ % x a w ,.x '.. R C e ).).o !.L : r ~.y {.a J #.$ r w z l ' N 5 $ ( y s K f * , , n z z K ( 2 0 + W y I K C * , : = m ].m ",
"8 . @ % r x & # i R 3 * S C r ] $.U * 5 ^.; C & /.A $ $ a ] n 2 e _ , L j ; g o (._.! ! $.o ( b s ~ #.* s ( & # f * : % X P P :.",
"   .. % 4 N : 0 4 ~ ! % ( P $ <.[ G > L [._.}.<.( U 1 , r 2 : 1 r _.~ $ ( U | $ ; } U | 4 _ ^ ^ ' ~ 1 |.o P ) |.o ^ $ : x R @ B ",
"8 = ).b n * : M i q h a s 1.$ 5 (.[ 2.r $.k }.|.r ( 3.d a * $ $ (.o h o ^.1 , | (.[ 4.r i _ |.: a r 5.r i ~ % : T & 6.] n $ @ 7 ",
"  n a S = R : : ' a D z r 2 + , F s I y [ _.L | ( D 7.D ' _ , , o i i s C 5 | 5 T s e 8.# * : : ( D 8.7.] ! + { ] r 9.9.= $ @ 7 ",
"8 O x   n R , M r b ( b s _ , 5 s ' o 0.a.G | , T & & 2 i N 3 5 a ] & !.e * 5 L j b.o ] e _ 0 + a ( b o e G |.+ W & & A n $ @ 7 ",
"  R % + = R $ % b 2 , N C 2 R $ ( A L G c.d._ 5 ( 4 5 3 ( 2 ~ N n 4 ^ ^ ; ! ! ` C !.* _.c.J N 0 ( 2 , _ ( A 2 + ( 2 : #.= $ . 7 ",
"t  .e.% X b f.t S _ $ _ I S g.i y _ 5 ! $.j h.s K _ . $ S n h S e 4 N , y $.i.r $.4 $ N j.m g.a S N . R I i %.a i N : : n & k.l.",
"  $ % B ' a H m.b Y . +.a n.*.K W !.` $ T n.y h $.Y N +.u S I ).X ' * N a y y K n 4 A o.X p.p.q.m P R A W {.K n.X _ , + 4 v m m ",
"8 . e.: a x t & S +.. +.e ;.i n r.U $ $ e W $.f /.4 R R Z t n m K 4 * o.K e i T ~.; $ s.t.$.a ( j.2 +.N a t r ( a N , : n P P u.",
"  . . B 4 Y + 0 ' ~ * ^ i ( 5 # g C k ! g [ 5 _ g !.P 5 T = R A & N # ! u # > ! T k _ 5 T 4 . J r J N * W # 5 5 ( _ * : # +.@ / ",
"8 x ).b r ~ + , i n p e a _ ! > V g v.g V k , 3 s a h r I ~ #.5 e r w.a e } 5 | (.b.4.x.y.2 |.* s r p e e N * 5 i ( h ( n $ @ 7 ",
"O n m w & * : : ( w D z ; 2 5 5 ( z.~.A.; 1.}.5 g e 8.7.u _ $ ^ u e B.7.T U L L o ~.y 8.r !.}.$ o 9.C.y ( 1 + ^ o a e S 4 $ @ 7 ",
"8 O = 2 r R : #.a & D.D.(.2 <.5 s g E.[.F.G.|., z.g r & e 1 + $ i D.( E.H.> L | z.[ o ] i U 5 { e ( r ( e _ | , i !.b # r $ @ 7 ",
"O R e.+ ' * ^ + ] A + }.; _ _.I.J.k L ! [ U _ 5 C d.* R o N 2 5 ( U 5 ! c.G _.> b.G.5 1 o U 2 |.o # L 2 o 1 ^ | ; G ) , 4 0 . 7 ",
"8 . e.% X n %.q i ~ 5 5 e a p (.~.G ! > y.(.4.i V _.^ |.e a 4.w e A , }.z.b.2.g K.L.L , (.a 4.M.y _ ! 1 s C p a i _ , : r 4 9 x ",
"O  .e.% & w D I ( A ^ ^ r K K N.i O.P.Q.R.S.E z ( U N ! W e ).h r * ! }.c.T.T.E j !.* , T z z 6.a A * $ u e I 7.( _ + : & m m m ",
"t . % B X ' t b e N ~ A j.8 S W E [.} ! U.V i & j.4 R _ j.n a t e A $ A y $.g r V.A R 5 K i a X j.= ~ $ V r r 4 e _ $ W.r = P u.",
"O $ $ e.b A . Y m A ..N a 4 * ' i T C o.j 4 ` _ a ( = N >.'   N >.= ' R $.; k X.$.U 4 A ;.= * = ,.& ' 4 ;.u * _ 8 A N &.& N e.B ",
"t x ).b r N . $ S m g.a I U _ _ E s Y.y r.A ! _ K X g.,.K = ~ J V /.h.$./.C Z.k `. +Y.K y ' $ Y y I g.K `.C R $ $.n .+m W $ @ 7 ",
"O ++v H ' R + . T D z K W !.N 5 W S.@+#+R.F _ G a 7.D 6.W !.5 G e 6.z E r k > } J.~.6.#+r U 5 R a 6.K p.T 4 $ $ u s y I 4 0 e.7 ",
"8 P x P r * : 3 i o n g ~.!.* ! s b.b.$+~.L.G I.s o d b s # ^ $ e i r o s G.I.} a.f i o e A ~ 1 y r g n y _.$ $ (.; ] U r $ e.7 ",
"O '.% 3 4 '.^ + ( # |.~ r d.G L [ G.%+&+E.k _.! o # 5 <.g U 2 ^ g O.$ ! F L.k *+b.d.=+<.[ _._.}.r ] }.! g U _.|.!.A , $ 4 $ . 7 ",
"8 . % : r ] h r e G 3 ^ z.x.p x.H.-+I.*+y.b.v.(.s G L }.e ;+>+x.z.U *+L j b.,+H.'+} =+> z.)+%.(.8._.|.}.y g p d J.G : + n & ).x ",
"O  .% : 4 a D y ( 1 |.5 g A.6.B.b.G.> !+R.A.~+N.b.U , ^ g 8.z 7.g O.}.|.[ T.{+]+[ -+> 1 r 8.z 6.( _.3 L g ~.z 8.C 1 | : # m m m ",
"8  .% : a & ^+& e P * ^ ~.b./+o s 0.I.I.^.F.(.[ V _.}._ i r ( d ~.!.^ * s g (.o s k G > E o a o E U 0 1 y ( g (+j _ $ , X = P :.",
"O 3 $ : ' J , _ C = Y _ e o N U i ; # > c.; U !.$._.P N e 4 R P i U C _ j [.G.G.r ; C * $.!.~ # ;.C P 2 $.] }.5 u ! 1 , 4 * e.B ",
"8 x l n a * . $ -.m _+e n.C 4 o. +^.:+r.^.<+4 N n.I [+{.t.C R = `.i }+S y ] k L.r.^.|+~.1+U N R t./.2+{.3+C N 5 i W p n W R e.7 ",
"O m S H ( Y R R ;.p.{._+-.' U _ /.4+5+6+j W !.U V {.q.p./.t N Y K 7+.+*.$.C U Z.V .+8+9+$.C +...-.).q._+;.u * 0+f r.y I & R @ 7 ",
"8 P l.P ;.+.. 3 I a m r N.u U _ E f V j  +; L.k r.;.m a K = N _ t.s S e  +F !.a+r.V r i E ' = 4 K e S a K = _ 5 V o ( ' a $ @ 7 ",
"  R : $ ' ~ * $ n U * _.s (+# G f b.G.} J.; G _.f ; _.!.i 4 P ! r !.<.<.(.b+k G.j !._ U (.# & 2 f o _ N r !.U | o O.5 * & $ . 7 ",
"8 , % : r n %.x.e 2 0 ! s (.v.s V.[.> c+K.(.v.(.y.U ! ! s (.h.a s O.1 ^ ^.H.d+'+V.k > > ~.i e+8.B.] _ * V 9.p 9.$._ L , a & 9 x ",
"O 3 % % ' w D 8.( _.^ $ g ~.S.B.J.b+!+c+R.z.B.f+b.U * =+/+7.7.7.g 1.}.<.g B.g+g+h+} 5 I.o A.7.7.z.O.1 5 r A.A.z (+! | , & m ;+m ",
"t . % : a & ] ] s _.5 5 A.g b.E.H.b+i+-+j+E.g E.s O.^ ^ S.x.x.] (.O.k+L z.E.'+E.'+k I.L y.g o l+A.(+1 > m+l+x.] (._ , , W x = N ",
"O  .$ : ' A #.* g 1.# |.T 0.^ _.b.G.n+!+o+G.> } b.k 2 ^ b.(+1 _.F.G L.> [ b+} p+R.0.q+! F.O.1 2 g # O._.b.O.! ! [._ * : ' ~ e.B ",
"t x ).( W ~ #.3 y a e+e S.# 1.r+z.F.d+s+T.p+t+! S.i h.e y !._ G S.i u+M.S.G.> *+v+'+v.s S.# ! 1 s e [+y y k ! ^ V r 5.r W $ e.7 ",
"O m H H ( N . 0 r E 6..+E !.!.G ^.S.@+w+x+F k G V E h h a # 2 U a n.#+~+(.[.G -+^.T.@+5.j ; # _ i n.5.6.e 4 * ! f ~.s z ] R e.7 ",
"t P & P S N R R I n e I p.u ] A  +^.V K.y+f U 4 N.I y a K u = ~ *.$.e y z+c.U [.z+V ^.i `.u ' ' E t.p.K 1+u _ _ r.W T ' i A+% @ ",
"O +.% $ u Y Y +.X n A ..j.u u u  +$.k B+ +C+W U /.;.8 u Z ;.m ' y W = u  +D+c.E+U.^.C+W V W a 4 I X 8 u p.T C A $.' 5 * C '.. @ ",
"t  .B : a r F+S /.] A A 1+y G+E H+J.k I+J+@+K+S.n.T 4 U E I L+E .+W U k M+y.N+y.M+B+L.C .+E O+C.1+T P U n.K [+s ^.G * P+r & ).Q+",
"O $ B + b e z ).r # G U z.#+5.4.y.c.k } x+R+S+H+a.o U 1 e 6.h 5.j [.} k a.S.S+T+J.L.k G (.~.N.h s o * 1 f z ~+).T 2 | | & m ].m ",
"t $ : + a ] o ] (._.! <.y.U+U+F.T.L.i+V+m+F.F.W+y.O.<.! E (.o o ~.k I.}.y.J.H.X+H.d.> > B.i g d ~.(+* ^ ~.b.r r z.1 , , a = P u.",
"O $ $ + ] A $ * r 1.2 * (.(+<._.F.-+Y+Z+F b+> G F.1.U }.i 0.5 1 g d.1.r+W+L.%+-+W+k G.1.[ o _._.g O.(+r+g (+! 1 o G > | !.* e.B ",
"8 x ).( g * , 3 M.9.p 9.z.d.I.r+y.F.`+ @K.k I.c+z.F..@i 8.O.<.<.A.s v.U+y.t++@i+s+H.u+H.m+k ^ 1 S.z.@@9.y.0.L 5 j E.#+r W R % #@",
"O n w e ' 1 3 , n z 7.6.b.(+=+} $@%@R+&@j+q+} } F.7.7.~+(.(+1 }.(.@+]+~+b.*@Z+V+=@f+-@,+b.# <.1.b.~+7.~+b.b+=+5 T s 8.y 4 R e.7 ",
"t P x # f N $ ^ y x.e g S.c.O.G r.$@j+;@U.L.L.0.y.g e (.E (+_ G S.H.s r S.*@>@Z+~.F.b.F.S.(+_._ E s e i E O.! ! K.T o ] a R % 7 ",
"O '.: ^ C N J N i n _ & E j ( _ r.$@G.,@j c.; b+~.r A 4 /.T 4 U i r U C '@c.*@p+K.J.b+C ^.r W 4 I i # ( E C C U f !.5 * C R  .@ ",
"t $ : , $.n _+e j.u N = p.n.)@N.!@c.; ~@z+U.{@`..+W X 4 *.n.L+l ]@X u T 9+ +^@M+/@J.c.!.4+.+L+K .+X 4 4 p.j.[+y `.A ` $ W & k.l.",
"O $ B + 8 I l l ;.u P 4 (@i._@Y.U.j :@~@<@/@|+[@n./.' = j.7+F+}@j.W 4 u V.N.=.|@^.; A ; y n._@7+I W A A V i.%.*.j 4 $ 5 ] a ;+].",
"t $ + + $.n r n K ' P U w+y ~.y.y+; b+-+1@z.j z.`.u !.1 n.e w r E i k G z+z.s '+U.[.k !.E y E s E r 4 4 E i r W ~.L.5 | a 4 x N ",
"O $ $ + ] P 5 * r # P ~ f b.1.k m+b+b+2@a.[.k 0.s (+T _.a r G O.i ] _.k K.3@G.*@K.*@; G (.; G o s [ C 2 s (+G _.c.1.G 5 ] N % B ",
"t x p.n f ! 5 |.e 9.e+s 7.(+! c+s+j+d+j+%@Y+r+G ~.F..@B.7.(+_ <.B.(.4@U+m+5@-+6@%@z.d+A.m+[ _._.f+A..@{+7.1.}.> F.g 4.r i R % 7 ",
"O 7@a 9.& 1 |.}.r ~.7.~+(.O.I.<.F.8@9@0@a@b@c@r+h+f+~+5.s o <.G (.B.f+d@h+t+e@i+'+d@f@B.g (+}.<.M.A.#+~+z._.L }.o z.y D !.0 % 7 ",
"t P & P i ! 3 ^ y i x.[ B.d.1.&+%@h+j+a@g@h@i@=+~.F.i )+S.k 1.<.f+r b.b.H.p+j@I.k@F.l@g B.0.<._.S.)+(.d m+d.> m@H.[ g & f R % 7 ",
"O +.% $ ] 2 2 5 f O.G O.F.k O.k J.n@-+G.j+p+$+> (.[ > O.(.# O.1 A.[ c+Y+H.*@o@c+x+*@G.L.(.g )+1.U+o c@0.(.k O.G b.L., * C ^ . 7 ",
"t $ M : a o %.i y P 2 2 w+A.N+]+R+n@6@c+p@~.q@T.T.b.L.k 5.s r@6.S.L.} b+S+%@d+%@s@o+} G R+7.N+~+y o O.U r.s v.s r.k 5 | W ' ).x ",
"O 3 + + u y p.n.I & 4 # E w+4.t@M+a.[.[.p@u@H+w+V.J.C ( ;..+h.h.s T C !.T.|@R+v@V.c.k !.V 9+9+[@K W A !.y 5..+9+j k * 5 ' S a ].",
"t R B + e r S ;.{.u 8 n (@j.4+`.w@V.k F |@S.~.r..+;.u X 7+t.I I *.a ' x@y@y+R+1@y+K.<+T ]@4+1+I 4+$.4 X ]@E y i `.U ! 5 ;.4 x J "};
